<svg width="1" height="1" viewBox="0 0 1 1" fill="none" xmlns="http://www.w3.org/2000/svg">
<g clip-path="url(#clip0_5_5)">
<rect width="1" height="1" fill="white"/>
<path fill-rule="evenodd" clip-rule="evenodd" d="M0.598512 0.000795049C0.61851 0.00111499 0.636934 0.00140973 0.652702 0.00140973C0.656202 0.00140973 0.659818 0.00140427 0.663543 0.00139866C0.701469 0.00134149 0.750572 0.00126748 0.80063 0.0067611C0.807826 0.00755086 0.814289 0.00845471 0.818909 0.0091193C0.821198 0.00944859 0.822859 0.00969166 0.824234 0.00989295C0.826281 0.0101925 0.827695 0.0103995 0.829609 0.0106605C0.830463 0.0107771 0.831132 0.0108625 0.831634 0.0109237C0.899073 0.0121035 0.953185 0.0479264 0.953185 0.0919452C0.953185 0.136709 0.897227 0.172997 0.828199 0.172997C0.806922 0.172997 0.788823 0.170748 0.778144 0.169291C0.770294 0.16822 0.766835 0.167691 0.764614 0.167351C0.7625 0.167027 0.761508 0.166875 0.75892 0.166592C0.740218 0.164539 0.721389 0.163851 0.698409 0.163622C0.750121 0.166684 0.802394 0.172407 0.854664 0.181823C0.877631 0.18596 0.905748 0.195037 0.928476 0.207276C0.939534 0.21323 0.961593 0.22636 0.974646 0.247441C0.991387 0.274477 0.988593 0.308168 0.95576 0.335768C0.920848 0.365116 0.874772 0.379479 0.8388 0.386909C0.803139 0.394275 0.768076 0.396712 0.74495 0.397998C0.70894 0.399999 0.673213 0.40013 0.640725 0.39984C0.645837 0.40022 0.651013 0.400605 0.656262 0.400999C0.69844 0.404159 0.744604 0.407817 0.790956 0.413662C0.799027 0.414679 0.82432 0.417994 0.849767 0.423664C0.861811 0.426348 0.880474 0.430972 0.898626 0.438393L0.898655 0.438404C0.908724 0.442521 0.958754 0.462974 0.966835 0.505242C0.966892 0.505462 0.96697 0.505763 0.967075 0.506162C0.967086 0.506206 0.967104 0.50627 0.967127 0.506354C0.967566 0.507957 0.969988 0.516794 0.969095 0.527308C0.967917 0.541182 0.961698 0.554481 0.95102 0.566396C0.94196 0.576506 0.931527 0.583506 0.925724 0.587165C0.908453 0.598054 0.887288 0.608202 0.875903 0.613661C0.873671 0.614731 0.871815 0.615621 0.870437 0.616301C0.838115 0.632259 0.804868 0.640713 0.779206 0.646029C0.766532 0.648654 0.754206 0.650802 0.744634 0.652462L0.743038 0.652738C0.733439 0.654403 0.726465 0.655612 0.719723 0.656946V0.656946C0.718295 0.657228 0.718487 0.659492 0.719943 0.65951C0.747117 0.659855 0.774965 0.660554 0.802848 0.661944C0.813937 0.662498 0.83967 0.664682 0.863702 0.667991C0.875291 0.669587 0.892526 0.672242 0.909129 0.676477C0.916803 0.678434 0.931295 0.682437 0.946125 0.689565C0.956673 0.694634 0.99652 0.715039 0.999791 0.753225C1.00225 0.781922 0.982454 0.802749 0.968437 0.813579C0.954788 0.824124 0.939996 0.830633 0.931346 0.834073C0.913709 0.841086 0.895507 0.845428 0.884653 0.847813V0.847813C0.879075 0.849039 0.877874 0.85708 0.882606 0.860277C0.890699 0.865744 0.898485 0.872497 0.90489 0.880804C0.93576 0.920842 0.910735 0.969528 0.848995 0.989546C0.822945 0.997993 0.79452 0.999987 0.768044 0.996461C0.761238 0.995555 0.754382 0.994944 0.747526 0.995307V0.995307C0.746592 0.995356 0.74535 0.995423 0.744033 0.995494C0.741985 0.995605 0.739756 0.995725 0.738225 0.995804L0.738127 0.995809C0.735819 0.995928 0.730739 0.99619 0.725722 0.996281C0.710347 0.996558 0.69174 0.997123 0.671725 0.99773C0.636537 0.998799 0.596994 1 0.563004 1C0.520499 1 0.477677 0.998622 0.438392 0.997358C0.427148 0.996996 0.416194 0.996644 0.40562 0.996335C0.400583 0.996189 0.394823 0.996075 0.388453 0.995949C0.344383 0.995077 0.27111 0.993628 0.205891 0.97671C0.205156 0.97652 0.20432 0.976307 0.203391 0.97607C0.184879 0.971358 0.1292 0.957187 0.0960605 0.920527C0.085796 0.909172 0.0752032 0.893674 0.0705712 0.87546C0.0659684 0.857361 0.0657938 0.829624 0.0911993 0.802488C0.0917641 0.801885 0.0924584 0.801068 0.0953513 0.797517L0.0956273 0.797178C0.0979484 0.794327 0.102379 0.788884 0.107878 0.783255C0.10922 0.781881 0.110653 0.780465 0.112183 0.779019C0.126834 0.765169 0.126367 0.737487 0.110289 0.725323V0.725323C0.0993565 0.717052 0.0731322 0.694964 0.0736505 0.662491C0.0743009 0.621752 0.114478 0.596218 0.1461 0.5845C0.197477 0.565461 0.251055 0.554017 0.292666 0.545129C0.297284 0.544142 0.301755 0.543187 0.306059 0.542257V0.542257C0.313851 0.540573 0.313674 0.528263 0.305824 0.526874C0.25816 0.518442 0.209669 0.507219 0.163301 0.49142L0.162912 0.491287C0.15099 0.487228 0.111655 0.473835 0.0896694 0.444791C0.0619852 0.408218 0.0794446 0.374538 0.0927448 0.357289C0.115623 0.327615 0.150201 0.30917 0.175867 0.297813V0.297813C0.184898 0.293817 0.18443 0.280298 0.175095 0.277076C0.140507 0.265141 0.109142 0.251119 0.0814843 0.236734L0.0811091 0.236539C0.0694411 0.230472 0.0339253 0.212005 0.0139074 0.1846C-0.00108211 0.164079 -0.000288394 0.144438 0.000202396 0.137293C0.000901041 0.127121 0.00351166 0.117393 0.00679409 0.108996C0.0100377 0.100699 0.0150253 0.0909119 0.0225755 0.0811968C0.0273796 0.0750152 0.0439952 0.05405 0.080451 0.0405408C0.121735 0.0252425 0.166125 0.0202787 0.19466 0.0178102C0.208719 0.0165939 0.222743 0.0157205 0.233929 0.0150239C0.234886 0.0149643 0.235822 0.014906 0.236736 0.0148488C0.249455 0.0140537 0.258199 0.0134661 0.265478 0.0127526C0.317498 0.00765314 0.369805 0.00519652 0.416806 0.00298907C0.426426 0.00253726 0.435823 0.0020959 0.444951 0.00164446C0.495457 -0.000853641 0.551362 4.07345e-05 0.598512 0.000795049ZM0.766619 0.231551C0.766622 0.231552 0.766547 0.231579 0.766382 0.231628C0.766534 0.231574 0.766616 0.23155 0.766619 0.231551ZM0.771236 0.577625C0.771234 0.577626 0.771127 0.577598 0.770926 0.577539C0.771137 0.577595 0.771238 0.577624 0.771236 0.577625ZM0.807269 0.693608C0.807271 0.693609 0.807149 0.693644 0.80689 0.69371C0.807136 0.69364 0.807266 0.693606 0.807269 0.693608ZM0.279569 0.347919C0.279156 0.347779 0.279193 0.34778 0.279593 0.347927C0.279585 0.347925 0.279577 0.347922 0.279569 0.347919ZM0.231639 0.106769C0.231608 0.106748 0.231611 0.106749 0.231647 0.106774C0.231644 0.106772 0.231642 0.106771 0.231639 0.106769Z" fill="black"/>
</g>
<defs>
<clipPath id="clip0_5_5">
<rect width="1" height="1" fill="white"/>
</clipPath>
</defs>
</svg>
